<svg version="1.1" id="Layer_1" xmlns="http://www.w3.org/2000/svg" xmlns:xlink="http://www.w3.org/1999/xlink" x="0px" y="0px"
	 width="100%" viewBox="0 0 318 159" enable-background="new 0 0 318 159" xml:space="preserve">
<path fill="#FEFEFE" opacity="1.000000" stroke="none" 
	d="
M212.000000,160.000000 
	C141.333344,160.000000 71.166687,160.000000 1.000019,160.000000 
	C1.000013,107.000015 1.000013,54.000031 1.000006,1.000033 
	C106.999969,1.000022 212.999939,1.000022 318.999939,1.000011 
	C318.999939,53.999966 318.999939,106.999931 318.999969,159.999939 
	C283.500000,160.000000 248.000000,160.000000 212.000000,160.000000 
M278.119110,58.128262 
	C278.002502,61.330017 278.746643,61.812630 282.788727,60.927105 
	C281.767731,60.235184 280.894196,59.643177 280.547852,58.602890 
	C280.857849,57.738663 281.167816,56.874439 282.088928,56.100609 
	C283.253876,55.616524 284.418823,55.132435 285.549011,54.662788 
	C285.985291,55.327030 286.454041,56.040672 287.302490,57.332378 
	C287.392609,51.930420 286.873047,51.356152 282.250000,51.927216 
	C277.850525,52.075367 279.542480,55.774181 278.119110,58.128262 
M65.053406,67.418381 
	C64.700302,67.309120 64.347191,67.199860 63.416840,66.765274 
	C59.420639,66.494698 55.408607,66.365913 51.431774,65.921883 
	C44.666885,65.166550 40.124672,69.125793 36.498734,73.688683 
	C30.097870,81.743546 30.196514,92.634384 35.923679,100.502556 
	C41.965225,108.802635 51.627716,111.860229 62.677723,108.617249 
	C64.444618,108.093132 66.211517,107.569023 67.887733,107.524597 
	C67.887733,107.524597 67.986282,108.002731 67.926277,108.853432 
	C70.991249,109.304985 74.056229,109.756538 77.472336,110.259819 
	C77.472336,94.648361 77.472336,79.943962 77.472336,65.007538 
	C74.365005,65.007538 71.410461,65.007538 69.929703,65.007538 
	C67.597008,66.429756 66.295120,67.223495 65.001663,68.004845 
	C65.001663,68.004845 64.991959,68.004120 65.053406,67.418381 
M235.303802,65.217667 
	C235.126450,66.315575 234.949081,67.413490 234.955353,67.374657 
	C229.011581,66.667328 223.389038,65.329468 217.815063,65.508034 
	C211.188644,65.720322 206.232864,69.718460 202.679199,75.293488 
	C197.136017,83.989655 198.008835,94.611252 204.897354,102.469360 
	C212.146912,110.739311 222.662506,112.117126 234.777557,106.384445 
	C235.837830,110.183624 238.567703,110.883217 244.971146,108.508728 
	C244.971146,108.508728 244.877609,108.034462 245.051193,107.106972 
	C244.993332,93.395050 244.935455,79.683121 244.925674,65.425163 
	C244.623093,65.304436 244.320511,65.183708 243.155426,64.864769 
	C241.098175,64.930840 239.040924,64.996910 236.501236,64.950066 
	C236.501236,64.950066 236.035828,65.120018 235.303802,65.217667 
M164.549057,65.924789 
	C150.966995,71.664314 145.427170,84.530685 151.139542,97.068718 
	C156.732834,109.345375 170.577744,113.184189 184.719147,106.319809 
	C184.933807,107.410927 185.144974,108.484276 185.365189,109.603607 
	C188.465652,109.603607 191.408203,109.603607 194.680756,109.603607 
	C194.680756,89.896591 194.680756,70.371025 194.680756,50.637688 
	C191.495529,50.637688 188.416428,50.637688 184.931183,50.637688 
	C184.931183,56.727318 184.931183,62.585014 184.931183,69.598396 
	C178.605972,64.023651 171.929520,65.113358 164.549057,65.924789 
M108.316673,64.994736 
	C105.348221,65.157158 102.307816,64.963905 99.424500,65.547188 
	C89.914963,67.470924 82.646576,76.210312 82.035271,86.055145 
	C81.421478,95.939995 87.937332,105.601105 97.349403,108.816650 
	C104.547012,111.275642 111.307961,110.056015 117.509636,106.366043 
	C119.696510,112.602715 124.303688,108.699554 127.652573,109.657066 
	C127.652573,89.662048 127.652573,70.149841 127.652573,50.659485 
	C124.355080,50.659485 121.424202,50.659485 118.171738,50.659485 
	C118.171738,56.696915 118.171738,62.472214 118.171738,68.723892 
	C114.861359,67.392715 111.998405,66.241455 108.316673,64.994736 
M256.546997,67.944389 
	C252.080338,71.179222 249.917130,75.651649 251.234161,80.941887 
	C252.545746,86.210312 256.660736,89.089127 261.930054,90.200989 
	C263.709167,90.576393 265.519592,90.803268 267.298828,91.178200 
	C269.884399,91.723061 272.622894,91.961914 274.992523,93.014702 
	C278.668671,94.647957 278.908600,98.196877 275.826233,100.466522 
	C272.390045,102.996696 264.606354,103.248856 262.446655,99.782127 
	C259.196289,94.564743 255.014587,96.074379 249.596786,96.208778 
	C251.357666,99.523201 252.368362,102.556534 254.284958,104.824219 
	C260.397247,112.056229 276.145996,113.165939 283.014160,106.605728 
	C285.445221,104.283691 287.470764,100.629677 287.934845,97.337547 
	C289.027618,89.585716 284.596069,84.724770 276.022736,83.083427 
	C272.766846,82.460098 269.288605,82.609894 266.220856,81.529526 
	C264.214905,80.823074 262.764526,78.539139 261.065277,76.961784 
	C262.933258,75.653709 264.649445,73.604309 266.699310,73.184547 
	C271.697845,72.160965 275.921753,73.627335 277.347839,78.629471 
	C280.819122,78.317703 283.822968,78.047913 287.840881,77.687042 
	C285.705231,74.360748 284.502258,70.959435 282.109955,69.042007 
	C274.329681,62.806080 265.709045,64.350471 256.546997,67.944389 
M135.832687,64.862480 
	C135.354141,66.249153 134.473999,67.631882 134.460358,69.023102 
	C134.348175,80.468735 134.396957,91.915947 134.396942,103.362679 
	C134.396927,105.440140 134.396942,107.517593 134.396942,109.496246 
	C138.086182,109.496246 140.993256,109.496246 143.906799,109.496246 
	C143.906799,94.501793 143.906799,79.812424 143.906799,64.839310 
	C141.351517,64.839310 139.059296,64.839310 135.832687,64.862480 
M137.539886,50.984760 
	C136.449875,50.984760 135.359879,50.984760 133.535141,50.984760 
	C134.058716,54.822666 133.961212,58.531773 135.337555,61.574120 
	C135.765564,62.520195 141.801346,62.587791 142.459259,61.442707 
	C144.066101,58.645985 144.030441,54.905552 144.760254,50.984936 
	C142.035217,50.984936 140.267303,50.984936 137.539886,50.984760 
z"/>
<path fill="#212124" opacity="1.000000" stroke="none" 
	d="
M164.930847,65.848244 
	C171.929520,65.113358 178.605972,64.023651 184.931183,69.598396 
	C184.931183,62.585014 184.931183,56.727318 184.931183,50.637688 
	C188.416428,50.637688 191.495529,50.637688 194.680756,50.637688 
	C194.680756,70.371025 194.680756,89.896591 194.680756,109.603607 
	C191.408203,109.603607 188.465652,109.603607 185.365189,109.603607 
	C185.144974,108.484276 184.933807,107.410927 184.719147,106.319809 
	C170.577744,113.184189 156.732834,109.345375 151.139542,97.068718 
	C145.427170,84.530685 150.966995,71.664314 164.930847,65.848244 
M180.334610,96.912575 
	C186.454651,89.814102 186.150589,82.313965 179.538025,77.263634 
	C173.917191,72.970741 165.636108,74.320312 161.504684,80.202522 
	C158.000198,85.192085 158.536530,91.581711 162.842667,96.143028 
	C167.336975,100.903664 172.959045,101.320419 180.334610,96.912575 
z"/>
<path fill="#232326" opacity="1.000000" stroke="none" 
	d="
M108.726059,65.042465 
	C111.998405,66.241455 114.861359,67.392715 118.171738,68.723892 
	C118.171738,62.472214 118.171738,56.696915 118.171738,50.659485 
	C121.424202,50.659485 124.355080,50.659485 127.652573,50.659485 
	C127.652573,70.149841 127.652573,89.662048 127.652573,109.657066 
	C124.303688,108.699554 119.696510,112.602715 117.509636,106.366043 
	C111.307961,110.056015 104.547012,111.275642 97.349403,108.816650 
	C87.937332,105.601105 81.421478,95.939995 82.035271,86.055145 
	C82.646576,76.210312 89.914963,67.470924 99.424500,65.547188 
	C102.307816,64.963905 105.348221,65.157158 108.726059,65.042465 
M116.125069,93.418137 
	C116.410683,90.076775 117.476837,86.569771 116.810577,83.430420 
	C115.623222,77.835739 110.450638,74.706917 104.448692,74.865532 
	C98.705368,75.017296 94.241356,78.686859 92.760460,84.473602 
	C91.392929,89.817375 93.785004,95.487946 98.566086,98.236221 
	C104.783020,101.809860 110.456619,100.457008 116.125069,93.418137 
z"/>
<path fill="#212124" opacity="1.000000" stroke="none" 
	d="
M244.756042,108.941635 
	C238.567703,110.883217 235.837830,110.183624 234.777557,106.384445 
	C222.662506,112.117126 212.146912,110.739311 204.897354,102.469360 
	C198.008835,94.611252 197.136017,83.989655 202.679199,75.293488 
	C206.232864,69.718460 211.188644,65.720322 217.815063,65.508034 
	C223.389038,65.329468 229.011581,66.667328 234.955353,67.374657 
	C234.949081,67.413490 235.126450,66.315575 235.765732,65.324776 
	C236.479675,65.308922 236.731674,65.185951 236.983673,65.062988 
	C239.040924,64.996910 241.098175,64.930840 243.652908,65.177719 
	C244.317841,65.764267 244.560242,65.924446 244.877594,65.971199 
	C244.935455,79.683121 244.993332,93.395050 244.802872,107.624802 
	C244.487259,108.233299 244.343124,108.365860 244.365799,108.407463 
	C244.470474,108.599380 244.621597,108.765968 244.756042,108.941635 
M209.684509,89.764664 
	C211.092651,98.997391 218.943268,100.864822 224.743225,99.827431 
	C230.977020,98.712448 235.677155,91.837517 234.617554,85.757248 
	C233.351654,78.493011 227.755447,74.246063 220.391846,74.961372 
	C213.546661,75.626312 209.260132,81.140457 209.684509,89.764664 
z"/>
<path fill="#212124" opacity="1.000000" stroke="none" 
	d="
M67.986282,108.002731 
	C67.986282,108.002731 67.887733,107.524597 67.953461,106.959496 
	C65.999390,107.176735 63.979591,107.959068 61.959797,108.741409 
	C51.627716,111.860229 41.965225,108.802635 35.923679,100.502556 
	C30.196514,92.634384 30.097870,81.743546 36.498734,73.688683 
	C40.124672,69.125793 44.666885,65.166550 51.431774,65.921883 
	C55.408607,66.365913 59.420639,66.494698 63.824085,67.127983 
	C64.428612,67.745171 64.682159,67.916313 64.991959,68.004120 
	C64.991959,68.004120 65.001663,68.004845 65.162018,68.359756 
	C66.593109,68.132698 67.820023,67.405426 69.145706,67.005699 
	C70.786537,66.510941 72.584366,65.853691 74.165627,66.127060 
	C74.980316,66.267906 76.013344,68.267624 76.026894,69.438065 
	C76.163239,81.214508 76.193680,92.994781 75.970123,104.768593 
	C75.948761,105.893326 74.191315,107.474144 72.906998,107.955864 
	C71.463913,108.497131 69.642891,108.030754 67.986282,108.002731 
M46.398567,77.790268 
	C45.445850,78.929520 44.277130,79.950829 43.579178,81.229179 
	C41.052399,85.857162 41.527718,90.470154 44.272938,94.822464 
	C47.139236,99.366737 52.246296,101.269081 56.638916,100.329117 
	C61.602760,99.266922 66.227188,95.803497 67.019058,89.641876 
	C67.685646,84.455017 66.325996,80.008652 61.862911,77.050224 
	C56.947784,73.792183 51.892635,74.006409 46.398567,77.790268 
z"/>
<path fill="#222225" opacity="1.000000" stroke="none" 
	d="
M256.850281,67.729172 
	C265.709045,64.350471 274.329681,62.806080 282.109955,69.042007 
	C284.502258,70.959435 285.705231,74.360748 287.840881,77.687042 
	C283.822968,78.047913 280.819122,78.317703 277.347839,78.629471 
	C275.921753,73.627335 271.697845,72.160965 266.699310,73.184547 
	C264.649445,73.604309 262.933258,75.653709 261.065277,76.961777 
	C262.764526,78.539139 264.214905,80.823074 266.220856,81.529526 
	C269.288605,82.609894 272.766846,82.460098 276.022736,83.083427 
	C284.596069,84.724770 289.027618,89.585716 287.934845,97.337547 
	C287.470764,100.629677 285.445221,104.283691 283.014160,106.605728 
	C276.145996,113.165939 260.397247,112.056229 254.284958,104.824219 
	C252.368362,102.556534 251.357666,99.523201 249.596786,96.208778 
	C255.014587,96.074379 259.196289,94.564743 262.446655,99.782127 
	C264.606354,103.248856 272.390045,102.996696 275.826233,100.466522 
	C278.908600,98.196877 278.668671,94.647957 274.992523,93.014702 
	C272.622894,91.961914 269.884399,91.723061 267.298828,91.178200 
	C265.519592,90.803268 263.709167,90.576393 261.930054,90.200989 
	C256.660736,89.089127 252.545746,86.210312 251.234161,80.941887 
	C249.917130,75.651649 252.080338,71.179222 256.850281,67.729172 
z"/>
<path fill="#252528" opacity="1.000000" stroke="none" 
	d="
M136.299866,64.850891 
	C139.059296,64.839310 141.351517,64.839310 143.906799,64.839310 
	C143.906799,79.812424 143.906799,94.501793 143.906799,109.496246 
	C140.993256,109.496246 138.086182,109.496246 134.396942,109.496246 
	C134.396942,107.517593 134.396927,105.440140 134.396942,103.362679 
	C134.396957,91.915947 134.348175,80.468735 134.460358,69.023102 
	C134.473999,67.631882 135.354141,66.249153 136.299866,64.850891 
z"/>
<path fill="#3E3E41" opacity="1.000000" stroke="none" 
	d="
M67.956284,108.428085 
	C69.642891,108.030754 71.463913,108.497131 72.906998,107.955864 
	C74.191315,107.474144 75.948761,105.893326 75.970123,104.768593 
	C76.193680,92.994781 76.163239,81.214508 76.026894,69.438065 
	C76.013344,68.267624 74.980316,66.267906 74.165627,66.127060 
	C72.584366,65.853691 70.786537,66.510941 69.145706,67.005699 
	C67.820023,67.405426 66.593109,68.132698 65.157806,68.365952 
	C66.295120,67.223495 67.597008,66.429756 69.929703,65.007538 
	C71.410461,65.007538 74.365005,65.007538 77.472336,65.007538 
	C77.472336,79.943962 77.472336,94.648361 77.472336,110.259819 
	C74.056229,109.756538 70.991249,109.304985 67.956284,108.428085 
z"/>
<path fill="#151519" opacity="1.000000" stroke="none" 
	d="
M138.019638,50.984848 
	C140.267303,50.984936 142.035217,50.984936 144.760254,50.984936 
	C144.030441,54.905552 144.066101,58.645985 142.459259,61.442707 
	C141.801346,62.587791 135.765564,62.520195 135.337555,61.574120 
	C133.961212,58.531773 134.058716,54.822666 133.535141,50.984760 
	C135.359879,50.984760 136.449875,50.984760 138.019638,50.984848 
z"/>
<path fill="#F7F7F7" opacity="1.000000" stroke="none" 
	d="
M283.038757,51.759983 
	C286.873047,51.356152 287.392609,51.930420 287.302490,57.332378 
	C286.454041,56.040672 285.985291,55.327030 285.549011,54.662788 
	C284.418823,55.132435 283.253876,55.616524 282.056580,55.878357 
	C282.037262,55.439465 282.050323,55.222820 282.185303,54.947678 
	C282.538300,54.596836 282.769348,54.304489 283.073364,53.450184 
	C283.110504,52.512142 283.074646,52.136063 283.038757,51.759983 
z"/>
<path fill="#AEAEAF" opacity="1.000000" stroke="none" 
	d="
M282.644379,51.843597 
	C283.074646,52.136063 283.110504,52.512142 282.836700,53.159622 
	C282.372467,53.956066 282.217896,54.481117 282.063354,55.006168 
	C282.050323,55.222820 282.037262,55.439465 281.751007,55.833160 
	C281.167816,56.874439 280.857849,57.738663 280.033142,58.696117 
	C279.248779,58.526634 278.979156,58.263927 278.709503,58.001221 
	C279.542480,55.774181 277.850525,52.075367 282.644379,51.843597 
z"/>
<path fill="#FAFAFA" opacity="1.000000" stroke="none" 
	d="
M278.414307,58.064743 
	C278.979156,58.263927 279.248779,58.526634 279.769531,58.920258 
	C280.894196,59.643177 281.767731,60.235184 282.788727,60.927105 
	C278.746643,61.812630 278.002502,61.330017 278.414307,58.064743 
z"/>
<path fill="#3E3E41" opacity="1.000000" stroke="none" 
	d="
M62.318760,108.679329 
	C63.979591,107.959068 65.999390,107.176735 67.998795,106.719650 
	C66.211517,107.569023 64.444618,108.093132 62.318760,108.679329 
z"/>
<path fill="#000000" opacity="1.000000" stroke="none" 
	d="
M244.863586,108.725182 
	C244.621597,108.765968 244.470474,108.599380 244.365799,108.407463 
	C244.343124,108.365860 244.487259,108.233299 244.716080,108.088547 
	C244.877609,108.034462 244.971146,108.508728 244.863586,108.725182 
z"/>
<path fill="#3E3E41" opacity="1.000000" stroke="none" 
	d="
M65.022682,67.711250 
	C64.682159,67.916313 64.428612,67.745171 64.112709,67.290649 
	C64.347191,67.199860 64.700302,67.309120 65.022682,67.711250 
z"/>
<path fill="#000000" opacity="1.000000" stroke="none" 
	d="
M244.901642,65.698181 
	C244.560242,65.924446 244.317841,65.764267 244.084167,65.276825 
	C244.320511,65.183708 244.623093,65.304436 244.901642,65.698181 
z"/>
<path fill="#000000" opacity="1.000000" stroke="none" 
	d="
M236.742462,65.006531 
	C236.731674,65.185951 236.479675,65.308922 236.131744,65.275955 
	C236.035828,65.120018 236.501236,64.950066 236.742462,65.006531 
z"/>
<path fill="#FAFAFB" opacity="1.000000" stroke="none" 
	d="
M180.043365,97.154533 
	C172.959045,101.320419 167.336975,100.903664 162.842667,96.143028 
	C158.536530,91.581711 158.000198,85.192085 161.504684,80.202522 
	C165.636108,74.320312 173.917191,72.970741 179.538025,77.263634 
	C186.150589,82.313965 186.454651,89.814102 180.043365,97.154533 
z"/>
<path fill="#FAFAFA" opacity="1.000000" stroke="none" 
	d="
M115.979462,93.768463 
	C110.456619,100.457008 104.783020,101.809860 98.566086,98.236221 
	C93.785004,95.487946 91.392929,89.817375 92.760460,84.473602 
	C94.241356,78.686859 98.705368,75.017296 104.448692,74.865532 
	C110.450638,74.706917 115.623222,77.835739 116.810577,83.430420 
	C117.476837,86.569771 116.410683,90.076775 115.979462,93.768463 
z"/>
<path fill="#FAFAFA" opacity="1.000000" stroke="none" 
	d="
M209.583099,89.380386 
	C209.260132,81.140457 213.546661,75.626312 220.391846,74.961372 
	C227.755447,74.246063 233.351654,78.493011 234.617554,85.757248 
	C235.677155,91.837517 230.977020,98.712448 224.743225,99.827431 
	C218.943268,100.864822 211.092651,98.997391 209.583099,89.380386 
z"/>
<path fill="#FBFBFB" opacity="1.000000" stroke="none" 
	d="
M46.691154,77.539604 
	C51.892635,74.006409 56.947784,73.792183 61.862911,77.050224 
	C66.325996,80.008652 67.685646,84.455017 67.019058,89.641876 
	C66.227188,95.803497 61.602760,99.266922 56.638916,100.329117 
	C52.246296,101.269081 47.139236,99.366737 44.272938,94.822464 
	C41.527718,90.470154 41.052399,85.857162 43.579178,81.229179 
	C44.277130,79.950829 45.445850,78.929520 46.691154,77.539604 
z"/>
<path fill="#E8E8E9" opacity="1.000000" stroke="none" 
	d="
M282.185303,54.947678 
	C282.217896,54.481117 282.372467,53.956066 282.763702,53.721581 
	C282.769348,54.304489 282.538300,54.596836 282.185303,54.947678 
z"/>
</svg>