<svg version="1.1" id="Layer_1" xmlns="http://www.w3.org/2000/svg" xmlns:xlink="http://www.w3.org/1999/xlink" x="0px" y="0px"
	 width="100%" viewBox="0 0 318 159" enable-background="new 0 0 318 159" xml:space="preserve">
<path fill="#FDFDFD" opacity="1.000000" stroke="none" 
	d="
M214.000000,160.000000 
	C142.666672,160.000000 71.833351,160.000000 1.000019,160.000000 
	C1.000013,107.000015 1.000013,54.000031 1.000006,1.000033 
	C106.999969,1.000022 212.999939,1.000022 318.999939,1.000011 
	C318.999939,53.999966 318.999939,106.999931 318.999969,159.999939 
	C284.166656,160.000000 249.333328,160.000000 214.000000,160.000000 
M191.983276,9.958117 
	C191.983276,9.958117 191.914398,9.879086 191.360245,10.190022 
	C190.832352,11.097364 190.304459,12.004707 189.223953,13.205689 
	C188.469864,14.436741 187.715790,15.667792 186.422394,17.234444 
	C185.898071,18.137043 185.373749,19.039642 184.293457,20.235121 
	C183.517151,21.458714 182.740845,22.682304 181.431808,24.248365 
	C180.902802,25.145672 180.373795,26.042978 179.292236,27.234978 
	C178.266541,27.795322 177.240860,28.355665 176.033844,28.156796 
	C177.609756,22.436125 179.185684,16.715454 181.081070,10.137096 
	C175.090210,6.610250 168.669006,8.644000 166.845200,14.645006 
	C166.365021,16.224985 165.860260,17.797777 165.401093,19.383804 
	C159.850891,38.555393 154.307129,57.728844 148.192245,77.514778 
	C148.109665,78.616394 148.027084,79.718010 147.926422,81.060928 
	C151.551163,81.060928 154.871887,81.209381 158.163803,80.966728 
	C159.100845,80.897652 159.954025,79.691292 161.150360,78.440521 
	C161.365219,77.625504 161.580093,76.810486 162.048477,75.376320 
	C162.077148,74.933655 162.105820,74.490990 162.651642,73.534637 
	C164.556732,66.897018 166.327454,60.215439 168.473373,53.656609 
	C168.936264,52.241817 170.751373,51.269447 171.985748,50.014606 
	C171.985748,50.014606 171.907028,50.056667 172.059784,50.967873 
	C172.365204,55.648449 172.670639,60.329029 172.803848,65.870766 
	C172.898941,67.913254 172.994049,69.955750 172.929214,72.894691 
	C172.929214,75.471596 172.929214,78.048500 172.929214,80.680679 
	C177.708466,80.680679 181.716705,80.680679 186.134293,80.680679 
	C185.717163,78.174255 185.369141,76.082985 185.195297,73.131042 
	C185.089935,71.088196 184.984573,69.045341 185.003372,66.111809 
	C184.670990,62.740395 184.338608,59.368977 184.138855,55.203293 
	C184.058380,54.136223 183.977905,53.069157 184.008911,51.102081 
	C184.320511,46.082169 181.608658,40.832718 185.713913,35.767811 
	C186.479996,34.523018 187.246078,33.278225 188.549591,31.718233 
	C189.076447,30.840109 189.603302,29.961985 190.026062,29.044071 
	C190.026062,29.044071 190.094955,29.131643 190.660126,28.835627 
	C191.200027,27.927355 191.739929,27.019081 192.735214,25.945263 
	C192.989700,25.698994 193.084534,25.401783 193.540344,24.701775 
	C194.060013,23.813538 194.579681,22.925301 195.662369,21.696239 
	C197.124405,19.506369 198.586441,17.316496 200.591309,14.791413 
	C201.126007,13.886343 201.660706,12.981273 202.747971,11.786449 
	C203.274857,10.895753 203.801758,10.005057 204.852142,8.770366 
	C203.231689,8.505765 201.611252,8.241164 199.147888,7.794359 
	C197.432068,7.869216 195.716232,7.944072 193.364807,7.961589 
	C192.870987,8.616547 192.377151,9.271504 191.983276,9.958117 
M192.015244,75.578926 
	C191.641220,77.156837 191.267197,78.734749 190.761398,80.868546 
	C194.194122,80.868546 197.209854,80.868546 200.225586,80.868546 
	C198.951111,82.080299 197.576294,82.533936 196.189301,82.946693 
	C176.956818,88.670250 157.758774,94.513588 138.477722,100.068756 
	C122.390327,104.703781 106.308151,109.436028 90.023781,113.278008 
	C80.591873,115.503296 73.203934,110.815323 69.013519,101.932747 
	C65.538521,94.566628 65.219872,86.780098 66.707855,79.001793 
	C67.986481,72.317818 70.010162,65.776375 71.895279,58.427776 
	C60.943340,70.766693 50.161472,82.329674 43.564552,96.948944 
	C41.592381,101.319435 39.830322,105.846931 38.576893,110.466621 
	C35.948715,120.153122 35.195339,129.943481 40.666473,138.982834 
	C47.558727,150.370117 58.505688,153.743286 71.059227,153.278763 
	C88.227669,152.643494 103.756462,146.347992 118.876305,138.922821 
	C161.473160,118.004082 204.015320,96.973862 246.568832,75.966904 
	C257.352448,70.643478 268.097961,65.242859 278.860992,59.877708 
	C278.697601,59.404678 278.534210,58.931644 278.370850,58.458614 
	C259.798492,63.966965 241.226120,69.475311 222.023254,75.170662 
	C222.397812,72.603088 222.705795,70.491928 223.044159,68.172432 
	C220.165466,68.172432 217.506241,68.172432 214.847015,68.172432 
	C212.288132,68.172432 209.729233,68.172432 206.734482,68.172432 
	C207.925934,64.215630 208.886246,61.058800 209.827026,57.896168 
	C212.801712,47.896240 212.796051,47.776295 223.135056,47.531292 
	C225.947968,47.464634 227.453033,46.652721 227.977600,43.880486 
	C228.401474,41.640419 229.049850,39.442833 229.761749,36.567520 
	C225.197098,36.567520 221.003113,36.567520 216.255997,36.567520 
	C218.068817,30.333221 219.673355,24.815168 221.367935,18.987520 
	C225.738113,18.987520 230.692108,20.375578 233.782288,18.571367 
	C236.512115,16.977556 237.164200,11.825021 239.004333,7.626158 
	C231.121887,7.626158 224.474442,7.916711 217.866928,7.528232 
	C213.136108,7.250090 211.065186,8.729671 209.765717,13.507236 
	C204.190689,34.004208 198.115875,54.365242 192.015244,75.578926 
M110.302292,39.352886 
	C110.807648,29.087130 111.313011,18.821373 111.831436,8.290085 
	C106.784088,8.290085 102.020218,8.290085 96.938835,8.290085 
	C89.815315,32.494949 82.684021,56.726234 75.524323,81.054016 
	C80.431915,81.054016 84.532578,81.054016 88.462181,81.054016 
	C92.616295,69.161812 94.966972,57.037716 99.588570,45.719082 
	C100.111298,45.869186 100.634026,46.019291 101.156754,46.169395 
	C101.156754,57.713844 101.156754,69.258293 101.156754,81.181908 
	C104.132233,81.181908 107.109978,80.968483 110.043144,81.238815 
	C113.315697,81.540428 114.544571,80.293312 115.438530,77.108696 
	C119.428558,62.894764 123.805168,48.789673 128.000122,34.632812 
	C130.583099,25.915977 133.090408,17.176722 135.773636,7.959991 
	C132.534821,7.959991 129.867676,8.203116 127.263718,7.901215 
	C123.642662,7.481391 122.024933,8.797704 121.092148,12.392276 
	C118.967766,20.578718 116.419182,28.660412 113.821991,36.713398 
	C113.405907,38.003517 111.847466,38.925220 110.302292,39.352886 
M155.508148,19.101345 
	C156.540710,15.514503 157.573288,11.927662 158.732117,7.902216 
	C155.267487,7.902216 152.425491,8.157367 149.650070,7.836555 
	C146.306198,7.450032 145.082138,8.864247 144.248856,11.940620 
	C141.602310,21.711483 138.648026,31.399403 135.780960,41.110012 
	C131.892548,54.279884 127.974762,67.441078 123.910324,81.142860 
	C127.147186,81.142860 129.810898,80.930084 132.426300,81.194786 
	C135.984116,81.554871 137.581345,80.334984 138.604324,76.706207 
	C143.961227,57.704052 149.659561,38.798149 155.508148,19.101345 
z"/>
<path fill="#060707" opacity="1.000000" stroke="none" 
	d="
M192.119232,75.177368 
	C198.115875,54.365242 204.190689,34.004208 209.765717,13.507236 
	C211.065186,8.729671 213.136108,7.250090 217.866928,7.528232 
	C224.474442,7.916711 231.121887,7.626158 239.004333,7.626158 
	C237.164200,11.825021 236.512115,16.977556 233.782288,18.571367 
	C230.692108,20.375578 225.738113,18.987520 221.367935,18.987520 
	C219.673355,24.815168 218.068817,30.333221 216.255997,36.567520 
	C221.003113,36.567520 225.197098,36.567520 229.761749,36.567520 
	C229.049850,39.442833 228.401474,41.640419 227.977600,43.880486 
	C227.453033,46.652721 225.947968,47.464634 223.135056,47.531292 
	C212.796051,47.776295 212.801712,47.896240 209.827026,57.896168 
	C208.886246,61.058800 207.925934,64.215630 206.734482,68.172432 
	C209.729233,68.172432 212.288132,68.172432 214.847015,68.172432 
	C217.506241,68.172432 220.165466,68.172432 223.044159,68.172432 
	C222.705795,70.491928 222.397812,72.603088 222.023254,75.170662 
	C241.226120,69.475311 259.798492,63.966965 278.370850,58.458614 
	C278.534210,58.931644 278.697601,59.404678 278.860992,59.877708 
	C268.097961,65.242859 257.352448,70.643478 246.568832,75.966904 
	C204.015320,96.973862 161.473160,118.004082 118.876305,138.922821 
	C103.756462,146.347992 88.227669,152.643494 71.059227,153.278763 
	C58.505688,153.743286 47.558727,150.370117 40.666473,138.982834 
	C35.195339,129.943481 35.948715,120.153122 38.576893,110.466621 
	C39.830322,105.846931 41.592381,101.319435 43.564552,96.948944 
	C50.161472,82.329674 60.943340,70.766693 71.895279,58.427776 
	C70.010162,65.776375 67.986481,72.317818 66.707855,79.001793 
	C65.219872,86.780098 65.538521,94.566628 69.013519,101.932747 
	C73.203934,110.815323 80.591873,115.503296 90.023781,113.278008 
	C106.308151,109.436028 122.390327,104.703781 138.477722,100.068756 
	C157.758774,94.513588 176.956818,88.670250 196.189301,82.946693 
	C197.576294,82.533936 198.951111,82.080299 200.225586,80.868546 
	C197.209854,80.868546 194.194122,80.868546 190.761398,80.868546 
	C191.267197,78.734749 191.641220,77.156837 192.119232,75.177368 
z"/>
<path fill="#090B0B" opacity="1.000000" stroke="none" 
	d="
M110.559708,39.685059 
	C111.847466,38.925220 113.405907,38.003517 113.821991,36.713398 
	C116.419182,28.660412 118.967766,20.578718 121.092148,12.392276 
	C122.024933,8.797704 123.642662,7.481391 127.263718,7.901215 
	C129.867676,8.203116 132.534821,7.959991 135.773636,7.959991 
	C133.090408,17.176722 130.583099,25.915977 128.000122,34.632812 
	C123.805168,48.789673 119.428558,62.894764 115.438530,77.108696 
	C114.544571,80.293312 113.315697,81.540428 110.043144,81.238815 
	C107.109978,80.968483 104.132233,81.181908 101.156754,81.181908 
	C101.156754,69.258293 101.156754,57.713844 101.156754,46.169395 
	C100.634026,46.019291 100.111298,45.869186 99.588570,45.719082 
	C94.966972,57.037716 92.616295,69.161812 88.462181,81.054016 
	C84.532578,81.054016 80.431915,81.054016 75.524323,81.054016 
	C82.684021,56.726234 89.815315,32.494949 96.938835,8.290085 
	C102.020218,8.290085 106.784088,8.290085 111.831436,8.290085 
	C111.313011,18.821373 110.807648,29.087130 110.559708,39.685059 
z"/>
<path fill="#080A0A" opacity="1.000000" stroke="none" 
	d="
M200.048462,15.126626 
	C198.586441,17.316496 197.124405,19.506369 195.025650,21.909386 
	C193.932541,23.099566 193.476135,24.076597 193.019745,25.053629 
	C193.084534,25.401783 192.989700,25.698994 192.133331,26.045216 
	C191.052612,27.140659 190.573792,28.136152 190.094955,29.131645 
	C190.094955,29.131643 190.026062,29.044071 189.721542,29.090937 
	C188.948730,30.103014 188.480453,31.068226 188.012161,32.033432 
	C187.246078,33.278225 186.479996,34.523018 185.045532,35.957722 
	C181.192566,39.744854 180.916229,48.877949 183.897446,52.002087 
	C183.977905,53.069157 184.058380,54.136223 183.782318,55.886467 
	C183.569244,60.094769 181.102310,63.983559 184.879211,67.002495 
	C184.984573,69.045341 185.089935,71.088196 184.822937,73.825073 
	C183.327774,79.625908 182.412155,80.008430 176.203201,78.438469 
	C175.030731,76.013664 174.059937,74.005951 173.089142,71.998238 
	C172.994049,69.955750 172.898941,67.913254 173.187454,65.147888 
	C173.708908,60.530220 173.980560,56.632168 173.885498,52.743073 
	C173.863220,51.832027 172.599564,50.951328 171.907028,50.056664 
	C171.907028,50.056667 171.985748,50.014606 171.929352,49.700474 
	C168.234009,46.468410 167.824631,50.188641 167.245972,51.996056 
	C165.540909,57.321651 164.186172,62.764629 162.846863,68.199257 
	C162.380295,70.092491 162.359085,72.095467 162.134476,74.048325 
	C162.105820,74.490990 162.077148,74.933655 161.595230,75.753189 
	C160.760101,77.088135 160.378220,78.046204 159.546539,79.002106 
	C155.651733,78.300552 152.206711,77.601181 148.761688,76.901810 
	C154.307129,57.728844 159.850891,38.555393 165.401093,19.383804 
	C165.860260,17.797777 166.365021,16.224985 166.845200,14.645006 
	C168.669006,8.644000 175.090210,6.610250 180.581940,10.647113 
	C178.200241,16.529501 176.281677,21.890192 174.525558,27.303577 
	C174.421417,27.624567 175.621826,28.368753 176.215164,28.916008 
	C177.240860,28.355665 178.266541,27.795322 179.930908,27.052296 
	C181.034576,25.881708 181.499557,24.893803 181.964539,23.905895 
	C182.740845,22.682304 183.517151,21.458714 184.933899,20.052311 
	C186.036804,18.879284 186.499252,17.889063 186.961700,16.898844 
	C187.715790,15.667792 188.469864,14.436741 189.869568,13.033452 
	C190.981583,11.867172 191.447998,10.873129 191.914398,9.879086 
	C191.914398,9.879086 191.983276,9.958117 192.261963,9.923515 
	C193.027222,9.265585 193.513824,8.642258 194.000412,8.018929 
	C195.716232,7.944072 197.432068,7.869216 199.828857,8.169685 
	C201.782776,8.734795 203.055710,8.924578 204.328644,9.114361 
	C203.801758,10.005057 203.274857,10.895753 202.104019,11.961573 
	C200.989532,13.133341 200.518997,14.129984 200.048462,15.126626 
z"/>
<path fill="#090909" opacity="1.000000" stroke="none" 
	d="
M155.373688,19.480070 
	C149.659561,38.798149 143.961227,57.704052 138.604324,76.706207 
	C137.581345,80.334984 135.984116,81.554871 132.426300,81.194786 
	C129.810898,80.930084 127.147186,81.142860 123.910324,81.142860 
	C127.974762,67.441078 131.892548,54.279884 135.780960,41.110012 
	C138.648026,31.399403 141.602310,21.711483 144.248856,11.940620 
	C145.082138,8.864247 146.306198,7.450032 149.650070,7.836555 
	C152.425491,8.157367 155.267487,7.902216 158.732117,7.902216 
	C157.573288,11.927662 156.540710,15.514503 155.373688,19.480070 
z"/>
<path fill="#0D0E0E" opacity="1.000000" stroke="none" 
	d="
M173.009186,72.446465 
	C174.059937,74.005951 175.030731,76.013664 176.203201,78.438469 
	C182.412155,80.008430 183.327774,79.625908 184.735840,74.255409 
	C185.369141,76.082985 185.717163,78.174255 186.134293,80.680679 
	C181.716705,80.680679 177.708466,80.680679 172.929214,80.680679 
	C172.929214,78.048500 172.929214,75.471596 173.009186,72.446465 
z"/>
<path fill="#0D0E0E" opacity="1.000000" stroke="none" 
	d="
M162.393066,73.791481 
	C162.359085,72.095467 162.380295,70.092491 162.846863,68.199257 
	C164.186172,62.764629 165.540909,57.321651 167.245972,51.996056 
	C167.824631,50.188641 168.234009,46.468410 171.908295,49.739815 
	C170.751373,51.269447 168.936264,52.241817 168.473373,53.656609 
	C166.327454,60.215439 164.556732,66.897018 162.393066,73.791481 
z"/>
<path fill="#0D0E0E" opacity="1.000000" stroke="none" 
	d="
M176.124512,28.536404 
	C175.621826,28.368753 174.421417,27.624567 174.525558,27.303577 
	C176.281677,21.890192 178.200241,16.529501 180.422195,11.075956 
	C179.185684,16.715454 177.609756,22.436125 176.124512,28.536404 
z"/>
<path fill="#0D0E0E" opacity="1.000000" stroke="none" 
	d="
M183.953186,51.552086 
	C180.916229,48.877949 181.192566,39.744854 184.764084,36.102859 
	C181.608658,40.832718 184.320511,46.082169 183.953186,51.552086 
z"/>
<path fill="#020303" opacity="1.000000" stroke="none" 
	d="
M148.476959,77.208298 
	C152.206711,77.601181 155.651733,78.300552 159.758896,79.005142 
	C160.421036,79.010361 160.845657,79.006462 160.845657,79.006470 
	C159.954025,79.691292 159.100845,80.897652 158.163803,80.966728 
	C154.871887,81.209381 151.551163,81.060928 147.926422,81.060928 
	C148.027084,79.718010 148.109665,78.616394 148.476959,77.208298 
z"/>
<path fill="#0D0E0E" opacity="1.000000" stroke="none" 
	d="
M171.983398,50.512268 
	C172.599564,50.951328 173.863220,51.832027 173.885498,52.743073 
	C173.980560,56.632168 173.708908,60.530220 173.273560,64.717300 
	C172.670639,60.329029 172.365204,55.648449 171.983398,50.512268 
z"/>
<path fill="#0D0E0E" opacity="1.000000" stroke="none" 
	d="
M184.941284,66.557152 
	C181.102310,63.983559 183.569244,60.094769 183.715988,56.283600 
	C184.338608,59.368977 184.670990,62.740395 184.941284,66.557152 
z"/>
<path fill="#0D0E0E" opacity="1.000000" stroke="none" 
	d="
M204.590393,8.942364 
	C203.055710,8.924578 201.782776,8.734795 200.250320,8.260788 
	C201.611252,8.241164 203.231689,8.505765 204.590393,8.942364 
z"/>
<path fill="#0D0E0E" opacity="1.000000" stroke="none" 
	d="
M188.280884,31.875835 
	C188.480453,31.068226 188.948730,30.103014 189.773590,29.110832 
	C189.603302,29.961985 189.076447,30.840109 188.280884,31.875835 
z"/>
<path fill="#0D0E0E" opacity="1.000000" stroke="none" 
	d="
M190.377533,28.983637 
	C190.573792,28.136152 191.052612,27.140659 191.905640,26.127987 
	C191.739929,27.019081 191.200027,27.927355 190.377533,28.983637 
z"/>
<path fill="#0D0E0E" opacity="1.000000" stroke="none" 
	d="
M181.698181,24.077129 
	C181.499557,24.893803 181.034576,25.881708 180.207184,26.904951 
	C180.373795,26.042978 180.902802,25.145672 181.698181,24.077129 
z"/>
<path fill="#0D0E0E" opacity="1.000000" stroke="none" 
	d="
M193.280045,24.877701 
	C193.476135,24.076597 193.932541,23.099566 194.744141,22.079800 
	C194.579681,22.925301 194.060013,23.813538 193.280045,24.877701 
z"/>
<path fill="#0D0E0E" opacity="1.000000" stroke="none" 
	d="
M186.692047,17.066643 
	C186.499252,17.889063 186.036804,18.879284 185.211884,19.905872 
	C185.373749,19.039642 185.898071,18.137043 186.692047,17.066643 
z"/>
<path fill="#0D0E0E" opacity="1.000000" stroke="none" 
	d="
M200.319885,14.959021 
	C200.518997,14.129984 200.989532,13.133341 201.827728,12.106449 
	C201.660706,12.981273 201.126007,13.886343 200.319885,14.959021 
z"/>
<path fill="#0D0E0E" opacity="1.000000" stroke="none" 
	d="
M191.637329,10.034554 
	C191.447998,10.873129 190.981583,11.867172 190.145874,12.886633 
	C190.304459,12.004707 190.832352,11.097364 191.637329,10.034554 
z"/>
<path fill="#0D0E0E" opacity="1.000000" stroke="none" 
	d="
M160.998016,78.723495 
	C160.845657,79.006462 160.421036,79.010361 160.208679,79.007317 
	C160.378220,78.046204 160.760101,77.088135 161.468475,76.062767 
	C161.580093,76.810486 161.365219,77.625504 160.998016,78.723495 
z"/>
<path fill="#0D0E0E" opacity="1.000000" stroke="none" 
	d="
M193.682617,7.990260 
	C193.513824,8.642258 193.027222,9.265585 192.211975,9.907686 
	C192.377151,9.271504 192.870987,8.616547 193.682617,7.990260 
z"/>
</svg>